<svg width="269" height="269" viewBox="0 0 269 269" fill="none" xmlns="http://www.w3.org/2000/svg">
<rect width="269" height="269" fill="#03D69D"/>
<path d="M241.011 104.048C242.316 105.414 243 106.965 243 108.828C243 110.69 242.316 112.303 241.011 113.545C239.707 114.786 238.029 115.407 236.102 115.407C234.114 115.407 232.436 114.786 231.131 113.545C229.826 112.303 229.205 110.69 229.205 108.828C229.205 106.965 229.888 105.414 231.193 104.048C232.498 102.683 234.176 102 236.102 102C238.029 102 239.707 102.683 241.011 104.048ZM230.385 158.854V127.262C230.385 124.158 232.933 121.614 236.04 121.614C239.147 121.614 241.695 124.158 241.695 127.262V158.792C241.695 161.896 239.147 164.441 236.04 164.441C232.933 164.503 230.385 161.958 230.385 158.854Z" fill="white"/>
<path d="M203.043 164.501C199.377 164.501 196.083 162.328 194.716 158.915L182.35 129.308C180.796 125.584 183.531 121.55 187.508 121.55C189.807 121.55 191.857 122.915 192.727 125.088L203.043 150.722L213.358 125.088C214.228 122.977 216.279 121.55 218.578 121.55C222.617 121.55 225.289 125.646 223.736 129.308L211.37 158.977C210.003 162.328 206.709 164.501 203.043 164.501Z" fill="white"/>
<path d="M119.463 147.06C122.508 150.102 125.304 152.895 128.101 155.688C121.762 163.446 113.87 168.225 103.369 166.239C93.6124 164.377 87.2119 158.357 84.6642 148.674C81.9921 138.433 86.7148 127.819 95.8495 122.605C104.984 117.392 116.418 118.757 123.937 126.143C132.326 134.336 140.529 142.715 148.856 150.97C153.143 155.191 159.482 155.688 164.08 152.274C169.238 148.426 170.17 140.978 166.193 135.95C162.154 130.922 154.697 130.116 149.85 134.336C148.172 135.764 146.805 137.564 145.376 139.178C142.269 136.074 139.472 133.281 136.676 130.488C142.828 122.916 150.595 117.764 162.154 120.061C171.785 121.923 178.932 129.805 180.547 139.674C182.101 149.357 177.005 159.35 168.119 164.005C159.047 168.722 148.048 167.108 140.653 159.846C132.388 151.653 124.186 143.398 115.921 135.205C112.379 131.667 107.408 130.612 103.058 132.598C98.6458 134.584 96.2223 138.06 96.1602 142.964C96.0981 147.805 98.3351 151.467 102.747 153.515C107.221 155.564 111.447 154.943 115.175 151.715C116.791 150.226 118.096 148.55 119.463 147.06Z" fill="white"/>
<path d="M66.894 164.504C63.4762 164.504 60.5556 162.27 59.6856 159.042L54.0308 138.063L48.3139 159.042C47.4439 162.27 44.5233 164.504 41.1677 164.504C37.8742 164.504 34.9536 162.332 34.0215 159.104L25.1975 128.319C24.2654 125.029 26.751 121.739 30.1687 121.739C32.468 121.739 34.5186 123.291 35.14 125.525L41.5405 148.677L47.5682 126.581C48.376 123.725 50.9238 121.739 53.9065 121.739C56.8893 121.739 59.4992 123.725 60.2449 126.581L66.2726 148.677L72.6731 125.525C73.2945 123.291 75.3451 121.739 77.6443 121.739H77.8307C81.2485 121.739 83.7341 125.029 82.802 128.319L74.0402 159.166C73.1702 162.332 70.2496 164.504 66.894 164.504Z" fill="white"/>
</svg>
